<mxfile host="app.diagrams.net" modified="2022-02-02T08:56:47.575Z" agent="5.0 (Macintosh; Intel Mac OS X 10_15_7) AppleWebKit/537.36 (KHTML, like Gecko) Chrome/97.0.4692.99 Safari/537.36" etag="YR7Pms1hETZGeZVX2qUF" version="16.5.2" type="github">
  <diagram id="O4XB29KBPiUDhsZIgtr7" name="Page-1">
    <mxGraphModel dx="1186" dy="739" grid="1" gridSize="10" guides="1" tooltips="1" connect="1" arrows="1" fold="1" page="1" pageScale="1" pageWidth="827" pageHeight="1169" math="0" shadow="0">
      <root>
        <mxCell id="0" />
        <mxCell id="1" parent="0" />
        <mxCell id="G2QDY8BSfh3H29t3z2LU-1" value="search and browse" style="shape=umlFrame;whiteSpace=wrap;html=1;width=120;height=30;" vertex="1" parent="1">
          <mxGeometry x="210" y="50" width="460" height="640" as="geometry" />
        </mxCell>
        <mxCell id="G2QDY8BSfh3H29t3z2LU-6" style="rounded=0;orthogonalLoop=1;jettySize=auto;html=1;entryX=0;entryY=0.5;entryDx=0;entryDy=0;" edge="1" parent="1" source="G2QDY8BSfh3H29t3z2LU-2" target="G2QDY8BSfh3H29t3z2LU-5">
          <mxGeometry relative="1" as="geometry" />
        </mxCell>
        <mxCell id="G2QDY8BSfh3H29t3z2LU-8" style="edgeStyle=none;rounded=0;orthogonalLoop=1;jettySize=auto;html=1;" edge="1" parent="1" source="G2QDY8BSfh3H29t3z2LU-2" target="G2QDY8BSfh3H29t3z2LU-7">
          <mxGeometry relative="1" as="geometry" />
        </mxCell>
        <mxCell id="G2QDY8BSfh3H29t3z2LU-10" style="edgeStyle=none;rounded=0;orthogonalLoop=1;jettySize=auto;html=1;" edge="1" parent="1" source="G2QDY8BSfh3H29t3z2LU-2" target="G2QDY8BSfh3H29t3z2LU-9">
          <mxGeometry relative="1" as="geometry" />
        </mxCell>
        <mxCell id="G2QDY8BSfh3H29t3z2LU-2" value="Public" style="shape=umlActor;verticalLabelPosition=bottom;verticalAlign=top;html=1;" vertex="1" parent="1">
          <mxGeometry x="70" y="260" width="30" height="60" as="geometry" />
        </mxCell>
        <mxCell id="G2QDY8BSfh3H29t3z2LU-5" value="View map" style="ellipse;whiteSpace=wrap;html=1;" vertex="1" parent="1">
          <mxGeometry x="300" y="100" width="140" height="70" as="geometry" />
        </mxCell>
        <mxCell id="G2QDY8BSfh3H29t3z2LU-13" style="edgeStyle=none;rounded=0;orthogonalLoop=1;jettySize=auto;html=1;" edge="1" parent="1" source="G2QDY8BSfh3H29t3z2LU-7" target="G2QDY8BSfh3H29t3z2LU-5">
          <mxGeometry relative="1" as="geometry" />
        </mxCell>
        <mxCell id="G2QDY8BSfh3H29t3z2LU-7" value="Filter results" style="ellipse;whiteSpace=wrap;html=1;" vertex="1" parent="1">
          <mxGeometry x="300" y="260" width="140" height="70" as="geometry" />
        </mxCell>
        <mxCell id="G2QDY8BSfh3H29t3z2LU-9" value="View school details on map" style="ellipse;whiteSpace=wrap;html=1;" vertex="1" parent="1">
          <mxGeometry x="300" y="430" width="140" height="70" as="geometry" />
        </mxCell>
        <mxCell id="G2QDY8BSfh3H29t3z2LU-12" value="extends" style="text;html=1;align=center;verticalAlign=middle;resizable=0;points=[];autosize=1;strokeColor=none;fillColor=none;" vertex="1" parent="1">
          <mxGeometry x="370" y="210" width="60" height="20" as="geometry" />
        </mxCell>
      </root>
    </mxGraphModel>
  </diagram>
</mxfile>
